<?xml version="1.0" encoding="utf-8"?>
<!-- Generator: Adobe Illustrator 22.1.0, SVG Export Plug-In . SVG Version: 6.00 Build 0)  -->
<svg version="1.1" id="arrova" xmlns="http://www.w3.org/2000/svg" xmlns:xlink="http://www.w3.org/1999/xlink" x="0px" y="0px"
	 viewBox="0 0 15 15" style="enable-background:new 0 0 15 15;" xml:space="preserve">
<style type="text/css">
	.st0{fill:#827A9B;}
</style>
<path class="st0" d="M11.6,10.6C11.6,10.6,11.6,10.6,11.6,10.6c1.4,0,2.2-1,2.2-2.8V7.3c0-1.7-0.6-3.3-2.1-4.6
	C10.4,1.7,9,1.2,7.6,1.2c-2.2,0-4,1-5.3,2.9c-0.7,1-1,2.1-1,3.4c0,2,0.8,3.7,2.4,5c1.2,0.9,2.4,1.3,3.8,1.3c1.2,0,2.3-0.4,3.5-1.1
	c0.1,0,0.1-0.1,0.2-0.1c0.3,0,0.6,0.4,0.6,0.7c0,0.5-0.9,1-2.6,1.5c-0.5,0.1-1,0.2-1.4,0.2H7.4c-1.8,0-3.5-0.6-5-2.1
	C0.7,11.4,0,9.6,0,7.5c0-2.1,0.9-4,2.6-5.6C4,0.6,5.7,0,7.4,0h0.3c2.2,0,4.1,0.9,5.7,2.8c1.2,1.4,1.7,3,1.7,4.7
	c0,2.1-0.7,3.5-2.2,4.1c-0.4,0.1-0.8,0.2-1.4,0.2c-0.9,0-1-0.6-1.6-0.6c-0.3,0-1.2,0.8-2.5,0.8c-2,0-4-1.6-4-4.2
	c0-2.4,1.7-4.2,4-4.2c0.4,0,0.8,0,1.3,0.2C9.4,4,9.7,4.4,10,4.4H10c0.3,0,0.4-0.5,0.8-0.5c0.3,0,0.6,0.2,0.6,0.6v5.9
	c0,0.1,0,0.1,0,0.1C11.5,10.5,11.5,10.5,11.6,10.6z M7.4,4.8c-1.4,0-2.8,1-2.8,3c0,2,1.4,3,2.8,3c1.4,0,2.8-1,2.8-3
	C10.2,5.8,8.8,4.8,7.4,4.8z"/>
</svg>
