<?xml version="1.0" encoding="utf-8"?>
<!-- Generator: Adobe Illustrator 22.1.0, SVG Export Plug-In . SVG Version: 6.00 Build 0)  -->
<svg version="1.1" id="Clip" xmlns="http://www.w3.org/2000/svg" xmlns:xlink="http://www.w3.org/1999/xlink" x="0px" y="0px"
	 viewBox="0 0 8.6 18" style="enable-background:new 0 0 8.6 18;" xml:space="preserve">
<style type="text/css">
	.st0{opacity:0.6;fill:#827A9B;}
</style>
<path class="st0" d="M4.3,13.2c0.7,0,1.1-0.6,1.1-1c0-2.5,0-5.1,0-7.6c0-0.3,0.1-0.5,0.3-0.6C6,4,6.2,4,6.4,4.3
	c0.1,0.1,0.1,0.3,0.1,0.4c0,2.6,0,5.2,0,7.8c0,1.1-0.9,1.8-1.9,1.9c-0.8,0.1-1.4,0-1.9-0.5c-0.5-0.4-0.7-0.9-0.7-1.5
	c0-3.1,0-6.2,0-9.4c0-1.4,1-2.6,2.5-2.9c1.3-0.3,2.6,0,3.6,1C8.3,1.5,8.6,2,8.6,2.6c0,0.2,0,0.4,0,0.6c0,3.5,0,7,0,10.5
	c0,2.3-1,3.6-3.2,4.1c-1.8,0.4-3.3,0-4.6-1.4C0.3,15.8,0,15.1,0,14.3c0-3.2,0-6.4,0-9.6C0,4.2,0.2,4,0.6,4c0.4,0,0.5,0.2,0.5,0.7
	c0,3,0.1,6.1,0,9.1c0,1.9,1.3,2.9,2.7,3.1c1.3,0.2,2.4-0.2,3.3-1.2c0.3-0.4,0.5-0.9,0.5-1.4c0-3.8,0-7.6,0-11.4
	c0-0.9-0.3-1.7-2.1-1.8C3.6,1,2.8,2.2,2.8,2.5c0,0.4,0,9.8,0,10C2.9,13.1,3.6,13.2,4.3,13.2z"/>
</svg>
