<?xml version="1.0" encoding="utf-8"?>
<!-- Generator: Adobe Illustrator 22.1.0, SVG Export Plug-In . SVG Version: 6.00 Build 0)  -->
<svg version="1.1" id="Linkedin" xmlns="http://www.w3.org/2000/svg" xmlns:xlink="http://www.w3.org/1999/xlink" x="0px" y="0px"
	 viewBox="0 0 16.5 16.5" style="enable-background:new 0 0 16.5 16.5;" xml:space="preserve">
<style type="text/css">
	.st0{opacity:0.6;fill:#827A9B;}
</style>
<path class="st0" d="M16.5,3c0,3.5,0,7,0,10.5c0,0.1-0.1,0.1-0.1,0.2c-0.3,1.3-1,2.1-2.2,2.6c-0.2,0.1-0.5,0.1-0.8,0.2
	c-3.5,0-7,0-10.5,0c-0.1,0-0.1-0.1-0.2-0.1c-1.3-0.2-2.1-1-2.6-2.1C0.1,14,0.1,13.8,0,13.5C0,10,0,6.5,0,3C0,3,0.1,2.9,0.1,2.8
	c0.3-1.3,1-2.1,2.2-2.6C2.5,0.1,2.8,0.1,3,0c3.5,0,7,0,10.5,0c0.1,0,0.1,0.1,0.2,0.1c1.3,0.2,2.1,1,2.6,2.1
	C16.4,2.5,16.4,2.7,16.5,3z M8.9,13c0-1.3,0-2.6,0-3.8C9,8.9,9,8.6,9.2,8.3c0.2-0.5,0.8-0.8,1.3-0.7c0.6,0.1,0.9,0.5,1.1,1
	c0.1,0.2,0.1,0.4,0.1,0.6c0,1.1,0,2.3,0,3.4c0,0.1,0,0.3,0,0.4c0.7,0,1.4,0,2.1,0c0,0,0,0,0-0.1c0-1.7,0-3.4-0.1-5.2
	c0-1-0.5-1.7-1.5-2.1c-1-0.4-1.9-0.2-2.8,0.4C9.3,6.2,9.1,6.4,8.9,6.5c0-0.3,0-0.7,0-1c-0.7,0-1.4,0-2,0c0,2.5,0,5,0,7.5
	C7.6,13,8.2,13,8.9,13z M5.5,5.5c-0.7,0-1.4,0-2,0c0,2.5,0,5,0,7.5c0.7,0,1.3,0,2,0C5.5,10.5,5.5,8,5.5,5.5z M3.3,3.4
	c0,0.7,0.5,1.2,1.2,1.2c0.7,0,1.2-0.6,1.2-1.2c0-0.7-0.5-1.2-1.2-1.2C3.8,2.2,3.3,2.7,3.3,3.4z"/>
</svg>
