<?xml version="1.0" encoding="utf-8"?>
<!-- Generator: Adobe Illustrator 22.1.0, SVG Export Plug-In . SVG Version: 6.00 Build 0)  -->
<svg version="1.1" id="M" xmlns="http://www.w3.org/2000/svg" xmlns:xlink="http://www.w3.org/1999/xlink" x="0px" y="0px"
	 viewBox="0 0 116.1 106.7" style="enable-background:new 0 0 116.1 106.7;" xml:space="preserve">
<style type="text/css">
	.st0{opacity:0.8;fill:#C2B6D5;}
</style>
<path class="st0" d="M26.1,23.3c-0.1,2.7-0.4,5.4-0.4,8.1c-0.4,17.3-1.6,34.6-2.2,51.9c-0.3,7.3-0.8,14.5-1.1,21.8
	c-0.1,1.3-0.5,1.6-1.7,1.6c-6.4-0.1-12.8-0.1-19.2,0c-1.3,0-1.6-0.4-1.5-1.6c0.6-9.7,1.2-19.3,1.8-29c0.5-7.3,1-14.7,1.4-22
	c0.8-12.5,1.6-24.9,2.4-37.4C6,11.7,6.4,6.8,6.6,1.9C6.6,0.5,6.9,0,8.4,0c9.7,0.1,19.4,0.1,29.1,0c1.2,0,1.6,0.4,1.9,1.5
	C45.7,23.3,52.5,45,57.1,67.3c0.4,2,0.8,4.1,1.7,6.2c0.6-2.4,1.3-4.8,1.9-7.2c5.1-22,12.3-43.4,19.2-64.9c0.3-1,0.7-1.4,1.8-1.4
	c9.6,0,19.1,0.1,28.7,0c1.3,0,1.6,0.4,1.6,1.6c0.5,9.4,1,18.8,1.5,28.2c0.8,13.7,1.6,27.4,2.3,41.1c0.5,8.4,0.9,16.7,1.3,25.1
	c0.2,3,0.3,6,0.5,9c0.1,1.2-0.1,1.6-1.5,1.6c-6.8-0.1-13.6-0.1-20.4,0c-1.4,0-1.7-0.5-1.7-1.7c-0.5-15.1-1.1-30.2-1.7-45.3
	c-0.5-11.9-0.8-23.7-0.7-35.6c0-0.5,0-1.1,0-1.6c-0.4-0.1-0.6,0.1-0.7,0.4C86.7,40.5,81,57.7,75.6,75c-3,9.4-5.9,18.8-8.7,28.2
	c-0.4,1.3-0.9,1.7-2.3,1.7c-5.2-0.1-10.4-0.1-15.7,0c-1.1,0-1.7-0.3-2-1.5c-6.2-23.1-13.2-46-18.3-69.5c-0.8-3.5-1.4-7.1-2.2-10.6
	C26.4,23.3,26.3,23.3,26.1,23.3z"/>
</svg>
