<?xml version="1.0" encoding="utf-8"?>
<!-- Generator: Adobe Illustrator 22.1.0, SVG Export Plug-In . SVG Version: 6.00 Build 0)  -->
<svg version="1.1" id="telf" xmlns="http://www.w3.org/2000/svg" xmlns:xlink="http://www.w3.org/1999/xlink" x="0px" y="0px"
	 viewBox="0 0 13.9 14.8" style="enable-background:new 0 0 13.9 14.8;" xml:space="preserve">
<style type="text/css">
	.st0{opacity:0.6;fill:#827A9B;}
</style>
<path class="st0" d="M9.9,14.8c-0.7,0-1.3-0.3-1.9-0.6c-2.3-1.2-4.2-2.9-5.7-5c-1-1.4-1.8-2.9-2.2-4.5c-0.3-1.1,0.1-2,0.8-2.8
	c0.5-0.5,1-0.9,1.5-1.4C3.3-0.3,4-0.1,4.3,0.9c0.3,0.8,0.6,1.6,1,2.4c0.1,0.2,0,0.3-0.1,0.5C4.8,4.1,4.5,4.4,4.1,4.7
	C3.3,5.2,3.3,6.1,3.8,6.7c1,1.5,2.1,2.9,3.6,4c0.6,0.4,1.3,0.6,2-0.1c0.3-0.4,0.7-0.7,1.1-1c0.2-0.1,0.3-0.2,0.5,0
	c0.7,0.5,1.5,0.9,2.3,1.3c0.4,0.2,0.7,0.5,0.7,1c0,0.3-0.2,0.5-0.4,0.7c-0.6,0.5-1.1,1-1.7,1.5C11.2,14.6,10.6,14.8,9.9,14.8z"/>
</svg>
