<?xml version="1.0" encoding="utf-8"?>
<!-- Generator: Adobe Illustrator 22.1.0, SVG Export Plug-In . SVG Version: 6.00 Build 0)  -->
<svg version="1.1" id="timeline" xmlns="http://www.w3.org/2000/svg" xmlns:xlink="http://www.w3.org/1999/xlink" x="0px" y="0px"
	 viewBox="0 0 8.7 224.7" style="enable-background:new 0 0 8.7 224.7;" xml:space="preserve">
<style type="text/css">
	.st1{fill:none;stroke:#5B5B5F;stroke-width:0.75;stroke-miterlimit:10;}
	.st2{opacity:0.6;fill:#827A9B;}
	.st3{opacity:0.6;fill:#C2B6D5;}
</style>
    <line class="st1" x1="4.4" y1="224.7" x2="4.4" y2="0"/>
    <g>                       
        <rect x="-54.9" y="54.9" transform="matrix(-1.836970e-16 1 -1 -1.836970e-16 57.9032 54.9301)" class="st2" width="112.8" height="3"/>                       
        <rect x="-40.8" y="180.9" transform="matrix(-1.836970e-16 1 -1 -1.836970e-16 183.8407 180.8676)" class="st2" width="84.6" height="3"/>
    </g>
    <g>
        <rect x="-2.3" y="79" transform="matrix(-1.836970e-16 1 -1 -1.836970e-16 87.6793 73.2374)" class="st3" width="19.1" height="3"/>
        <rect x="-28.8" y="129.5" transform="matrix(-1.836970e-16 1 -1 -1.836970e-16 138.2418 123.7999)" class="st3" width="72" height="3"/>                       
        <rect x="-1.5" y="21.7" transform="matrix(-1.836970e-16 1 -1 -1.836970e-16 30.4431 16.0011)" class="st3" width="17.5" height="3"/>
	</g>
</svg>
